<svg width="96" height="96" viewBox="0 0 96 96" fill="none" xmlns="http://www.w3.org/2000/svg">
<g clip-path="url(#clip0_4827_485770)">
<path d="M2.38419e-07 -6V2.38419e-07M2.38419e-07 2.38419e-07H6M2.38419e-07 2.38419e-07V6M2.38419e-07 2.38419e-07H-6" stroke="#14171F" stroke-opacity="0.1"/>
<path d="M2.38419e-07 -6V2.38419e-07M2.38419e-07 2.38419e-07H6M2.38419e-07 2.38419e-07V6M2.38419e-07 2.38419e-07H-6" stroke="#14171F" stroke-opacity="0.1"/>
<path d="M2.38419e-07 -6V2.38419e-07M2.38419e-07 2.38419e-07H6M2.38419e-07 2.38419e-07V6M2.38419e-07 2.38419e-07H-6" stroke="#14171F" stroke-opacity="0.1"/>
<path d="M2.38419e-07 -6V2.38419e-07M2.38419e-07 2.38419e-07H6M2.38419e-07 2.38419e-07V6M2.38419e-07 2.38419e-07H-6" stroke="#14171F" stroke-opacity="0.1"/>
<path d="M2.38419e-07 -6V2.38419e-07M2.38419e-07 2.38419e-07H6M2.38419e-07 2.38419e-07V6M2.38419e-07 2.38419e-07H-6" stroke="#14171F" stroke-opacity="0.1"/>
<path d="M2.38419e-07 90V96M2.38419e-07 96H6M2.38419e-07 96V102M2.38419e-07 96H-6" stroke="#14171F" stroke-opacity="0.1"/>
<path d="M2.38419e-07 90V96M2.38419e-07 96H6M2.38419e-07 96V102M2.38419e-07 96H-6" stroke="#14171F" stroke-opacity="0.1"/>
<path d="M2.38419e-07 90V96M2.38419e-07 96H6M2.38419e-07 96V102M2.38419e-07 96H-6" stroke="#14171F" stroke-opacity="0.1"/>
<path d="M2.38419e-07 90V96M2.38419e-07 96H6M2.38419e-07 96V102M2.38419e-07 96H-6" stroke="#14171F" stroke-opacity="0.1"/>
<path d="M96 -6V2.38419e-07M96 2.38419e-07H102M96 2.38419e-07V6M96 2.38419e-07H90" stroke="#14171F" stroke-opacity="0.1"/>
<path d="M96 -6V2.38419e-07M96 2.38419e-07H102M96 2.38419e-07V6M96 2.38419e-07H90" stroke="#14171F" stroke-opacity="0.1"/>
<path d="M96 -6V2.38419e-07M96 2.38419e-07H102M96 2.38419e-07V6M96 2.38419e-07H90" stroke="#14171F" stroke-opacity="0.1"/>
<path d="M96 -6V2.38419e-07M96 2.38419e-07H102M96 2.38419e-07V6M96 2.38419e-07H90" stroke="#14171F" stroke-opacity="0.1"/>
<path d="M96 -6V2.38419e-07M96 2.38419e-07H102M96 2.38419e-07V6M96 2.38419e-07H90" stroke="#14171F" stroke-opacity="0.1"/>
<path d="M96 90V96M96 96H102M96 96V102M96 96H90" stroke="#14171F" stroke-opacity="0.1"/>
<path d="M96 90V96M96 96H102M96 96V102M96 96H90" stroke="#14171F" stroke-opacity="0.1"/>
<path d="M96 90V96M96 96H102M96 96V102M96 96H90" stroke="#14171F" stroke-opacity="0.1"/>
<path d="M96 90V96M96 96H102M96 96V102M96 96H90" stroke="#14171F" stroke-opacity="0.1"/>
<rect x="47" y="48" width="1" height="1" fill="#14171F"/>
<rect x="47" y="95.5" width="1" height="1" fill="#14171F"/>
<rect x="47" y="-0.5" width="1" height="1" fill="#14171F"/>
<rect x="47" y="48" width="1" height="1" fill="#14171F"/>
<rect x="95.5" y="48" width="1" height="1" fill="#14171F"/>
<rect x="-0.5" y="48" width="1" height="1" fill="#14171F"/>
<rect x="47" y="95.5" width="1" height="1" fill="#14171F"/>
<rect x="47" y="-0.5" width="1" height="1" fill="#14171F"/>
</g>
<rect x="0.5" y="0.5" width="95" height="95" stroke="#14171F" stroke-opacity="0.05"/>
<defs>
<clipPath id="clip0_4827_485770">
<rect width="96" height="96" fill="white"/>
</clipPath>
</defs>
</svg>
