<svg width="96" height="96" viewBox="0 0 96 96" fill="none" xmlns="http://www.w3.org/2000/svg">
<g clip-path="url(#clip0_4913_226661)">
<mask id="mask0_4913_226661" style="mask-type:luminance" maskUnits="userSpaceOnUse" x="0" y="0" width="96" height="96">
<path d="M96 0H0V96H96V0Z" fill="white"/>
</mask>
<g mask="url(#mask0_4913_226661)">
<path d="M4.76837e-07 -6V4.76837e-07M4.76837e-07 4.76837e-07H6M4.76837e-07 4.76837e-07V6M4.76837e-07 4.76837e-07H-6" stroke="#14171F" stroke-opacity="0.5"/>
<path d="M4.76837e-07 -6V4.76837e-07M4.76837e-07 4.76837e-07H6M4.76837e-07 4.76837e-07V6M4.76837e-07 4.76837e-07H-6" stroke="#14171F" stroke-opacity="0.5"/>
<path d="M4.76837e-07 -6V4.76837e-07M4.76837e-07 4.76837e-07H6M4.76837e-07 4.76837e-07V6M4.76837e-07 4.76837e-07H-6" stroke="#14171F" stroke-opacity="0.5"/>
<path d="M4.76837e-07 -6V4.76837e-07M4.76837e-07 4.76837e-07H6M4.76837e-07 4.76837e-07V6M4.76837e-07 4.76837e-07H-6" stroke="#14171F" stroke-opacity="0.5"/>
<path d="M4.76837e-07 -6V4.76837e-07M4.76837e-07 4.76837e-07H6M4.76837e-07 4.76837e-07V6M4.76837e-07 4.76837e-07H-6" stroke="#14171F" stroke-opacity="0.5"/>
<path d="M4.76837e-07 90V96M4.76837e-07 96H6M4.76837e-07 96V102M4.76837e-07 96H-6" stroke="#14171F" stroke-opacity="0.5"/>
<path d="M4.76837e-07 90V96M4.76837e-07 96H6M4.76837e-07 96V102M4.76837e-07 96H-6" stroke="#14171F" stroke-opacity="0.5"/>
<path d="M4.76837e-07 90V96M4.76837e-07 96H6M4.76837e-07 96V102M4.76837e-07 96H-6" stroke="#14171F" stroke-opacity="0.5"/>
<path d="M4.76837e-07 90V96M4.76837e-07 96H6M4.76837e-07 96V102M4.76837e-07 96H-6" stroke="#14171F" stroke-opacity="0.5"/>
<path d="M96 -6V4.76837e-07M96 4.76837e-07H102M96 4.76837e-07V6M96 4.76837e-07H90" stroke="#14171F" stroke-opacity="0.5"/>
<path d="M96 -6V4.76837e-07M96 4.76837e-07H102M96 4.76837e-07V6M96 4.76837e-07H90" stroke="#14171F" stroke-opacity="0.5"/>
<path d="M96 -6V4.76837e-07M96 4.76837e-07H102M96 4.76837e-07V6M96 4.76837e-07H90" stroke="#14171F" stroke-opacity="0.5"/>
<path d="M96 -6V4.76837e-07M96 4.76837e-07H102M96 4.76837e-07V6M96 4.76837e-07H90" stroke="#14171F" stroke-opacity="0.5"/>
<path d="M96 -6V4.76837e-07M96 4.76837e-07H102M96 4.76837e-07V6M96 4.76837e-07H90" stroke="#14171F" stroke-opacity="0.5"/>
<path d="M96 90V96M96 96H102M96 96V102M96 96H90" stroke="#14171F" stroke-opacity="0.5"/>
<path d="M96 90V96M96 96H102M96 96V102M96 96H90" stroke="#14171F" stroke-opacity="0.5"/>
<path d="M96 90V96M96 96H102M96 96V102M96 96H90" stroke="#14171F" stroke-opacity="0.5"/>
<path d="M96 90V96M96 96H102M96 96V102M96 96H90" stroke="#14171F" stroke-opacity="0.5"/>
<path d="M48 48H47V49H48V48Z" fill="#14171F"/>
<path d="M48 95.5H47V96.5H48V95.5Z" fill="#14171F"/>
<path d="M48 -0.5H47V0.5H48V-0.5Z" fill="#14171F"/>
<path d="M48 48H47V49H48V48Z" fill="#14171F"/>
<path d="M96.5 48H95.5V49H96.5V48Z" fill="#14171F"/>
<path d="M0.5 48H-0.5V49H0.5V48Z" fill="#14171F"/>
<path d="M48 95.5H47V96.5H48V95.5Z" fill="#14171F"/>
<path d="M48 -0.5H47V0.5H48V-0.5Z" fill="#14171F"/>
</g>
<path d="M95.5 0.5H0.5V95.5H95.5V0.5Z" stroke="#14171F" stroke-opacity="0.3"/>
</g>
<defs>
<clipPath id="clip0_4913_226661">
<rect width="96" height="96" fill="white"/>
</clipPath>
</defs>
</svg>
